<svg xmlns="http://www.w3.org/2000/svg" viewBox="0 0 512 512" width="512" height="512">
  <!-- Background circle with gradient -->
  <defs>
    <linearGradient id="bg-gradient" x1="0%" y1="0%" x2="100%" y2="100%">
      <stop offset="0%" style="stop-color:#7c3aed;stop-opacity:1" />
      <stop offset="100%" style="stop-color:#a855f7;stop-opacity:1" />
    </linearGradient>
    <linearGradient id="sparkle-gradient" x1="0%" y1="0%" x2="100%" y2="100%">
      <stop offset="0%" style="stop-color:#fbbf24;stop-opacity:1" />
      <stop offset="100%" style="stop-color:#f59e0b;stop-opacity:1" />
    </linearGradient>
  </defs>
  
  <!-- Background -->
  <circle cx="256" cy="256" r="240" fill="url(#bg-gradient)" stroke="#5b21b6" stroke-width="8"/>
  
  <!-- Cleaning brush -->
  <g transform="translate(256,256) rotate(-30)">
    <!-- Handle -->
    <rect x="-80" y="-8" width="140" height="16" rx="8" fill="#8b4513"/>
    <rect x="-80" y="-6" width="140" height="12" rx="6" fill="#a0522d"/>
    
    <!-- Brush ferrule -->
    <rect x="50" y="-12" width="20" height="24" rx="2" fill="#c0c0c0"/>
    <rect x="52" y="-10" width="16" height="20" rx="1" fill="#e8e8e8"/>
    
    <!-- Brush bristles -->
    <g fill="#4ade80">
      <rect x="68" y="-10" width="3" height="28" rx="1.5"/>
      <rect x="72" y="-8" width="3" height="26" rx="1.5"/>
      <rect x="76" y="-12" width="3" height="30" rx="1.5"/>
      <rect x="80" y="-9" width="3" height="27" rx="1.5"/>
      <rect x="84" y="-11" width="3" height="29" rx="1.5"/>
      <rect x="88" y="-7" width="3" height="25" rx="1.5"/>
    </g>
  </g>
  
  <!-- Sparkles/stars to indicate cleanliness -->
  <g fill="url(#sparkle-gradient)">
    <!-- Star 1 -->
    <g transform="translate(180,150) scale(0.8)">
      <path d="M12 2l3.09 6.26L22 9.27l-5 4.87 1.18 6.88L12 17.77l-6.18 3.25L7 14.14 2 9.27l6.91-1.01L12 2z"/>
    </g>
    
    <!-- Star 2 -->
    <g transform="translate(350,180) scale(0.6)">
      <path d="M12 2l3.09 6.26L22 9.27l-5 4.87 1.18 6.88L12 17.77l-6.18 3.25L7 14.14 2 9.27l6.91-1.01L12 2z"/>
    </g>
    
    <!-- Star 3 -->
    <g transform="translate(160,350) scale(0.7)">
      <path d="M12 2l3.09 6.26L22 9.27l-5 4.87 1.18 6.88L12 17.77l-6.18 3.25L7 14.14 2 9.27l6.91-1.01L12 2z"/>
    </g>
    
    <!-- Small sparkles -->
    <circle cx="320" cy="120" r="4"/>
    <circle cx="140" cy="280" r="3"/>
    <circle cx="370" cy="320" r="3"/>
    <circle cx="120" cy="180" r="2"/>
  </g>
  
  <!-- Text -->
  <text x="256" y="420" text-anchor="middle" fill="white" font-family="Arial, sans-serif" font-size="36" font-weight="bold">
    CleanMaster
  </text>
  
  <!-- Bubbles for cleaning effect -->
  <g fill="rgba(255,255,255,0.3)">
    <circle cx="200" cy="200" r="8"/>
    <circle cx="310" cy="220" r="6"/>
    <circle cx="180" cy="300" r="5"/>
    <circle cx="330" cy="280" r="7"/>
    <circle cx="220" cy="320" r="4"/>
  </g>
</svg> 